<svg height="45" viewBox="0 0 45 45" width="45" xmlns="http://www.w3.org/2000/svg"><g fill="none" fill-rule="nonzero"><rect fill="#fff" height="45" rx="6" width="45"/><path d="m34.509375 9h-24.01875c-.8235 0-1.490625.667125-1.490625 1.490625v24.019875c0 .822375.667125 1.4895 1.490625 1.4895h12.931875v-10.45575h-3.519v-4.07475h3.519v-3.004875c0-3.4875 2.129625-5.3865 5.241375-5.3865 1.490625 0 2.770875.111375 3.144375.160875v3.645l-2.15775.001125c-1.692 0-2.019375.804375-2.019375 1.983375v2.602125h4.035375l-.525375 4.07475h-3.51v10.454625h6.8805c.82125 0 1.488375-.667125 1.488375-1.490625v-24.01875c0-.8235-.667125-1.490625-1.490625-1.490625z" fill="#4065b4"/></g></svg>