<svg height="45" viewBox="0 0 45 45" width="45" xmlns="http://www.w3.org/2000/svg"><g fill="none" fill-rule="nonzero"><rect fill="#fff" height="45" rx="6" width="45"/><g transform="translate(5 5)"><path d="m10.1077189 30.3419118.5775215.2977941c2.4063395 1.4889706 5.1014397 2.1838235 7.7965399 2.1838235 8.470315 0 15.4005726-7.1470588 15.4005726-15.8823529 0-4.1691177-1.6363108-8.23897062-4.5239182-11.21691179-2.8876073-2.97794118-6.7377505-4.66544118-10.8766544-4.66544118-8.4703149 0-15.40057261 7.14705882-15.30431904 15.98161767 0 2.9779412.86628222 5.8566176 2.3100859 8.3382353l.38501431.5955882-1.54005726 5.8566177z" fill="#00e676"/><path d="m30.8010899 5.25405405c-3.3351498-3.4054054-7.9455041-5.25405405-12.6539509-5.25405405-10.00544963 0-18.04904636 8.07567568-17.95095371 17.9027027 0 3.1135135.88283378 6.1297297 2.35422343 8.8540541l-2.55040872 9.2432432 9.51498638-2.4324324c2.64850132 1.4594594 5.59128062 2.1405405 8.53405992 2.1405405 9.907357 0 17.9509537-8.0756757 17.9509537-17.9027027 0-4.7675676-1.8637602-9.24324324-5.1989101-12.55135135zm-12.6539509 27.43783785c-2.6485014 0-5.2970028-.6810811-7.5531336-2.0432433l-.5885558-.2918918-5.68937331 1.4594594 1.47138965-5.5459459-.39237057-.5837838c-4.3160763-6.9081081-2.25613079-16.05405407 4.80653953-20.33513515 7.0626703-4.28108108 16.1852861-2.23783784 20.5013624 4.76756755 4.3160763 7.0054054 2.2561308 16.0540541-4.8065395 20.3351352-2.2561308 1.4594594-5.0027248 2.2378378-7.7493188 2.2378378zm8.6321526-10.8-1.0790191-.4864865s-1.5694823-.6810811-2.5504087-1.1675676c-.0980927 0-.1961853-.0972973-.294278-.0972973-.2942779 0-.4904632.0972973-.6866485.1945946 0 0-.0980926.0972973-1.4713896 1.6540541-.0980927.1945946-.2942779.2918919-.4904632.2918919h-.0980927c-.0980926 0-.2942779-.0972973-.3923705-.1945946l-.4904633-.1945946c-1.079019-.4864865-2.0599455-1.0702703-2.8446866-1.8486487-.1961853-.1945946-.4904632-.3891891-.6866485-.5837837-.6866485-.6810811-1.373297-1.4594595-1.8637602-2.3351352l-.0980927-.1945946c-.0980926-.0972973-.0980926-.1945946-.1961853-.3891892 0-.1945946 0-.3891891.0980927-.4864864 0 0 .3923706-.4864865.6866485-.7783784.1961853-.1945946.2942779-.4864865.4904632-.6810811.1961853-.2918919.2942779-.6810811.1961853-.972973-.0980927-.4864865-1.2752044-3.1135135-1.5694823-3.69729728-.1961853-.29189189-.3923706-.38918918-.6866485-.48648648h-.2942779c-.1961853 0-.4904632 0-.7847412 0-.1961853 0-.3923705.0972973-.5885558.0972973l-.0980927.09729729c-.1961853.0972973-.3923706.29189189-.5885558.38918917-.1961853.1945946-.294278.3891892-.49046325.5837838-.6866485.8756757-1.07901908 1.945946-1.07901908 3.0162162 0 .7783784.19618529 1.5567568.49046322 2.2378379l.09809264.2918919c.88283377 1.8486486 2.05994547 3.5027027 3.62942777 4.9621621l.3923706.3891892c.2942779.2918919.5885559.4864865.7847411.7783784 2.0599455 1.7513513 4.414169 3.0162162 7.0626703 3.6972973.294278.0972973.6866485.0972973.9809265.1945946h.9809264c.4904632 0 1.0790191-.1945946 1.4713896-.3891892.294278-.1945946.4904633-.1945946.6866486-.3891892l.1961852-.1945946c.1961853-.1945946.3923706-.2918919.5885559-.4864865s.3923706-.3891892.4904632-.5837838c.1961853-.3891892.2942779-.8756756.3923706-1.3621621 0-.1945946 0-.4864865 0-.6810811 0 0-.0980927-.0972973-.2942779-.1945946z" fill="#fff"/></g></g></svg>